<mxfile host="app.diagrams.net" modified="2023-12-15T00:47:33.255Z" agent="Mozilla/5.0 (Macintosh; Intel Mac OS X 10_15_7) AppleWebKit/537.36 (KHTML, like Gecko) Chrome/118.0.0.0 Safari/537.36 Edg/118.0.2088.46" etag="x1qOFtLRICHyl0CbRh22" version="22.1.8" type="github">
  <diagram id="C5RBs43oDa-KdzZeNtuy" name="Page-1">
    <mxGraphModel dx="1754" dy="1089" grid="1" gridSize="10" guides="1" tooltips="1" connect="1" arrows="1" fold="1" page="1" pageScale="1" pageWidth="827" pageHeight="1169" math="0" shadow="0">
      <root>
        <mxCell id="WIyWlLk6GJQsqaUBKTNV-0" />
        <mxCell id="WIyWlLk6GJQsqaUBKTNV-1" parent="WIyWlLk6GJQsqaUBKTNV-0" />
        <mxCell id="gLdE-QhClBPgRxDVnxu4-5" value="" style="edgeStyle=orthogonalEdgeStyle;rounded=1;orthogonalLoop=1;jettySize=auto;html=1;strokeWidth=1.5;" parent="WIyWlLk6GJQsqaUBKTNV-1" source="gLdE-QhClBPgRxDVnxu4-2" target="gLdE-QhClBPgRxDVnxu4-4" edge="1">
          <mxGeometry relative="1" as="geometry" />
        </mxCell>
        <mxCell id="gLdE-QhClBPgRxDVnxu4-6" value="1、策略配置" style="edgeLabel;html=1;align=center;verticalAlign=middle;resizable=0;points=[];fontSize=13;fontStyle=0" parent="gLdE-QhClBPgRxDVnxu4-5" vertex="1" connectable="0">
          <mxGeometry x="0.1" y="1" relative="1" as="geometry">
            <mxPoint as="offset" />
          </mxGeometry>
        </mxCell>
        <mxCell id="gLdE-QhClBPgRxDVnxu4-2" value="执行策略选择" style="rounded=1;whiteSpace=wrap;html=1;strokeWidth=1.5;fillColor=#d5e8d4;strokeColor=#82b366;" parent="WIyWlLk6GJQsqaUBKTNV-1" vertex="1">
          <mxGeometry x="220" y="190" width="120" height="60" as="geometry" />
        </mxCell>
        <mxCell id="gLdE-QhClBPgRxDVnxu4-8" value="" style="edgeStyle=orthogonalEdgeStyle;rounded=1;orthogonalLoop=1;jettySize=auto;html=1;fontFamily=Helvetica;fontSize=12;fontColor=default;strokeWidth=1.5;entryX=0;entryY=0.5;entryDx=0;entryDy=0;entryPerimeter=0;" parent="WIyWlLk6GJQsqaUBKTNV-1" source="gLdE-QhClBPgRxDVnxu4-4" target="gLdE-QhClBPgRxDVnxu4-10" edge="1">
          <mxGeometry relative="1" as="geometry">
            <mxPoint x="790" y="220" as="targetPoint" />
          </mxGeometry>
        </mxCell>
        <mxCell id="gLdE-QhClBPgRxDVnxu4-9" value="2、人群包推送" style="edgeLabel;html=1;align=center;verticalAlign=middle;resizable=0;points=[];fontSize=13;fontFamily=Helvetica;fontColor=default;fontStyle=0" parent="gLdE-QhClBPgRxDVnxu4-8" vertex="1" connectable="0">
          <mxGeometry x="0.0333" relative="1" as="geometry">
            <mxPoint as="offset" />
          </mxGeometry>
        </mxCell>
        <mxCell id="gLdE-QhClBPgRxDVnxu4-4" value="人群包策略圈选" style="rounded=1;whiteSpace=wrap;html=1;strokeWidth=1.5;fillColor=#d5e8d4;strokeColor=#82b366;" parent="WIyWlLk6GJQsqaUBKTNV-1" vertex="1">
          <mxGeometry x="520" y="190" width="120" height="60" as="geometry" />
        </mxCell>
        <mxCell id="gLdE-QhClBPgRxDVnxu4-14" value="" style="edgeStyle=orthogonalEdgeStyle;shape=connector;rounded=1;orthogonalLoop=1;jettySize=auto;html=1;labelBackgroundColor=default;strokeColor=default;strokeWidth=1.5;align=center;verticalAlign=middle;fontFamily=Helvetica;fontSize=12;fontColor=default;endArrow=classic;entryX=0.5;entryY=0;entryDx=0;entryDy=0;" parent="WIyWlLk6GJQsqaUBKTNV-1" source="gLdE-QhClBPgRxDVnxu4-10" target="gLdE-QhClBPgRxDVnxu4-26" edge="1">
          <mxGeometry relative="1" as="geometry">
            <mxPoint x="720" y="410" as="targetPoint" />
            <Array as="points">
              <mxPoint x="860" y="345" />
              <mxPoint x="670" y="345" />
            </Array>
          </mxGeometry>
        </mxCell>
        <mxCell id="gLdE-QhClBPgRxDVnxu4-15" value="3、分批消费" style="edgeLabel;html=1;align=center;verticalAlign=middle;resizable=0;points=[];fontSize=13;fontFamily=Helvetica;fontColor=default;fontStyle=0" parent="gLdE-QhClBPgRxDVnxu4-14" vertex="1" connectable="0">
          <mxGeometry x="-0.2" y="-2" relative="1" as="geometry">
            <mxPoint x="53" y="-53" as="offset" />
          </mxGeometry>
        </mxCell>
        <mxCell id="gLdE-QhClBPgRxDVnxu4-17" style="edgeStyle=orthogonalEdgeStyle;shape=connector;rounded=1;orthogonalLoop=1;jettySize=auto;html=1;labelBackgroundColor=default;strokeColor=default;strokeWidth=1.5;align=center;verticalAlign=middle;fontFamily=Helvetica;fontSize=12;fontColor=default;endArrow=classic;entryX=0.5;entryY=0;entryDx=0;entryDy=0;" parent="WIyWlLk6GJQsqaUBKTNV-1" source="gLdE-QhClBPgRxDVnxu4-10" target="gLdE-QhClBPgRxDVnxu4-30" edge="1">
          <mxGeometry relative="1" as="geometry">
            <mxPoint x="1030" y="440" as="targetPoint" />
            <Array as="points">
              <mxPoint x="860" y="345" />
              <mxPoint x="1080" y="345" />
            </Array>
          </mxGeometry>
        </mxCell>
        <mxCell id="gLdE-QhClBPgRxDVnxu4-20" value="3.2、标签策略" style="edgeLabel;html=1;align=center;verticalAlign=middle;resizable=0;points=[];fontSize=13;fontFamily=Helvetica;fontColor=default;fontStyle=0" parent="gLdE-QhClBPgRxDVnxu4-17" vertex="1" connectable="0">
          <mxGeometry x="0.6467" y="1" relative="1" as="geometry">
            <mxPoint x="-1" y="14" as="offset" />
          </mxGeometry>
        </mxCell>
        <mxCell id="gLdE-QhClBPgRxDVnxu4-10" value="rocketmq" style="strokeWidth=2;html=1;shape=mxgraph.flowchart.direct_data;whiteSpace=wrap;rounded=1;strokeColor=#82b366;align=center;verticalAlign=middle;fontFamily=Helvetica;fontSize=12;fillColor=#d5e8d4;" parent="WIyWlLk6GJQsqaUBKTNV-1" vertex="1">
          <mxGeometry x="810" y="190" width="100" height="60" as="geometry" />
        </mxCell>
        <mxCell id="gLdE-QhClBPgRxDVnxu4-18" value="&lt;span style=&quot;font-weight: normal;&quot;&gt;3.1、名单策略&lt;/span&gt;" style="edgeLabel;html=1;align=center;verticalAlign=middle;resizable=0;points=[];fontSize=13;fontFamily=Helvetica;fontColor=default;fontStyle=1" parent="WIyWlLk6GJQsqaUBKTNV-1" vertex="1" connectable="0">
          <mxGeometry x="670" y="390" as="geometry" />
        </mxCell>
        <mxCell id="2kfFUkeNst7DjbefP4rm-3" style="edgeStyle=orthogonalEdgeStyle;shape=connector;rounded=1;orthogonalLoop=1;jettySize=auto;html=1;entryX=0.5;entryY=0;entryDx=0;entryDy=0;labelBackgroundColor=default;strokeColor=default;strokeWidth=1.5;align=center;verticalAlign=middle;fontFamily=Helvetica;fontSize=12;fontColor=default;endArrow=classic;" edge="1" parent="WIyWlLk6GJQsqaUBKTNV-1" source="gLdE-QhClBPgRxDVnxu4-22" target="gLdE-QhClBPgRxDVnxu4-40">
          <mxGeometry relative="1" as="geometry" />
        </mxCell>
        <mxCell id="gLdE-QhClBPgRxDVnxu4-22" value="实时名单策略处理" style="whiteSpace=wrap;html=1;fillColor=#dae8fc;strokeColor=#6c8ebf;strokeWidth=2;rounded=1;" parent="WIyWlLk6GJQsqaUBKTNV-1" vertex="1">
          <mxGeometry x="490" y="525" width="120" height="60" as="geometry" />
        </mxCell>
        <mxCell id="2kfFUkeNst7DjbefP4rm-4" style="edgeStyle=orthogonalEdgeStyle;shape=connector;rounded=1;orthogonalLoop=1;jettySize=auto;html=1;entryX=0.5;entryY=0;entryDx=0;entryDy=0;labelBackgroundColor=default;strokeColor=default;strokeWidth=1.5;align=center;verticalAlign=middle;fontFamily=Helvetica;fontSize=12;fontColor=default;endArrow=classic;" edge="1" parent="WIyWlLk6GJQsqaUBKTNV-1" source="gLdE-QhClBPgRxDVnxu4-23" target="gLdE-QhClBPgRxDVnxu4-40">
          <mxGeometry relative="1" as="geometry" />
        </mxCell>
        <mxCell id="2kfFUkeNst7DjbefP4rm-7" value="4、名单策略处理" style="edgeLabel;html=1;align=center;verticalAlign=middle;resizable=0;points=[];fontSize=13;fontFamily=Helvetica;fontColor=default;" vertex="1" connectable="0" parent="2kfFUkeNst7DjbefP4rm-4">
          <mxGeometry x="0.7333" y="-1" relative="1" as="geometry">
            <mxPoint as="offset" />
          </mxGeometry>
        </mxCell>
        <mxCell id="gLdE-QhClBPgRxDVnxu4-23" value="离线名单策略处理" style="whiteSpace=wrap;html=1;fillColor=#dae8fc;strokeColor=#6c8ebf;strokeWidth=2;rounded=1;" parent="WIyWlLk6GJQsqaUBKTNV-1" vertex="1">
          <mxGeometry x="730" y="525" width="120" height="60" as="geometry" />
        </mxCell>
        <mxCell id="gLdE-QhClBPgRxDVnxu4-35" style="edgeStyle=orthogonalEdgeStyle;shape=connector;rounded=1;orthogonalLoop=1;jettySize=auto;html=1;labelBackgroundColor=default;strokeColor=default;strokeWidth=1.5;align=center;verticalAlign=middle;fontFamily=Helvetica;fontSize=13;fontColor=default;endArrow=classic;entryX=0.5;entryY=0;entryDx=0;entryDy=0;" parent="WIyWlLk6GJQsqaUBKTNV-1" source="gLdE-QhClBPgRxDVnxu4-24" target="2kfFUkeNst7DjbefP4rm-22" edge="1">
          <mxGeometry relative="1" as="geometry">
            <Array as="points">
              <mxPoint x="1200" y="640" />
              <mxPoint x="1090" y="640" />
            </Array>
            <mxPoint x="1090" y="690" as="targetPoint" />
          </mxGeometry>
        </mxCell>
        <mxCell id="gLdE-QhClBPgRxDVnxu4-24" value="离线标签策略处理" style="whiteSpace=wrap;html=1;fillColor=#dae8fc;strokeColor=#6c8ebf;strokeWidth=2;rounded=1;" parent="WIyWlLk6GJQsqaUBKTNV-1" vertex="1">
          <mxGeometry x="1140" y="525" width="120" height="60" as="geometry" />
        </mxCell>
        <mxCell id="gLdE-QhClBPgRxDVnxu4-27" style="edgeStyle=orthogonalEdgeStyle;shape=connector;rounded=1;orthogonalLoop=1;jettySize=auto;html=1;entryX=0.5;entryY=0;entryDx=0;entryDy=0;labelBackgroundColor=default;strokeColor=default;strokeWidth=1.5;align=center;verticalAlign=middle;fontFamily=Helvetica;fontSize=13;fontColor=default;endArrow=classic;" parent="WIyWlLk6GJQsqaUBKTNV-1" source="gLdE-QhClBPgRxDVnxu4-26" target="gLdE-QhClBPgRxDVnxu4-22" edge="1">
          <mxGeometry relative="1" as="geometry">
            <Array as="points">
              <mxPoint x="550" y="455" />
            </Array>
          </mxGeometry>
        </mxCell>
        <mxCell id="gLdE-QhClBPgRxDVnxu4-26" value="实时、离线区分" style="rounded=0;whiteSpace=wrap;html=1;labelBackgroundColor=none;align=center;verticalAlign=middle;fontFamily=Helvetica;fontSize=13;fillColor=#dae8fc;strokeColor=#6c8ebf;" parent="WIyWlLk6GJQsqaUBKTNV-1" vertex="1">
          <mxGeometry x="610" y="440" width="120" height="30" as="geometry" />
        </mxCell>
        <mxCell id="gLdE-QhClBPgRxDVnxu4-28" style="edgeStyle=orthogonalEdgeStyle;shape=connector;rounded=0;orthogonalLoop=1;jettySize=auto;html=1;entryX=0.5;entryY=0;entryDx=0;entryDy=0;labelBackgroundColor=default;strokeColor=default;strokeWidth=1.5;align=center;verticalAlign=middle;fontFamily=Helvetica;fontSize=13;fontColor=default;endArrow=classic;" parent="WIyWlLk6GJQsqaUBKTNV-1" source="gLdE-QhClBPgRxDVnxu4-26" target="gLdE-QhClBPgRxDVnxu4-23" edge="1">
          <mxGeometry relative="1" as="geometry">
            <Array as="points">
              <mxPoint x="790" y="455" />
            </Array>
          </mxGeometry>
        </mxCell>
        <mxCell id="gLdE-QhClBPgRxDVnxu4-34" style="edgeStyle=orthogonalEdgeStyle;shape=connector;rounded=1;orthogonalLoop=1;jettySize=auto;html=1;labelBackgroundColor=default;strokeColor=default;strokeWidth=1.5;align=center;verticalAlign=middle;fontFamily=Helvetica;fontSize=13;fontColor=default;endArrow=classic;entryX=0.5;entryY=0;entryDx=0;entryDy=0;" parent="WIyWlLk6GJQsqaUBKTNV-1" source="gLdE-QhClBPgRxDVnxu4-29" target="2kfFUkeNst7DjbefP4rm-22" edge="1">
          <mxGeometry relative="1" as="geometry">
            <Array as="points">
              <mxPoint x="960" y="640" />
              <mxPoint x="1090" y="640" />
            </Array>
            <mxPoint x="1090" y="690" as="targetPoint" />
          </mxGeometry>
        </mxCell>
        <mxCell id="gLdE-QhClBPgRxDVnxu4-37" value="4、标签策略处理" style="edgeLabel;html=1;align=center;verticalAlign=middle;resizable=0;points=[];fontSize=13;fontFamily=Helvetica;fontColor=default;" parent="gLdE-QhClBPgRxDVnxu4-34" vertex="1" connectable="0">
          <mxGeometry x="0.6711" y="-1" relative="1" as="geometry">
            <mxPoint x="1" y="6" as="offset" />
          </mxGeometry>
        </mxCell>
        <mxCell id="gLdE-QhClBPgRxDVnxu4-29" value="实时标签策略处理" style="whiteSpace=wrap;html=1;fillColor=#dae8fc;strokeColor=#6c8ebf;strokeWidth=2;rounded=1;" parent="WIyWlLk6GJQsqaUBKTNV-1" vertex="1">
          <mxGeometry x="900" y="525" width="120" height="60" as="geometry" />
        </mxCell>
        <mxCell id="gLdE-QhClBPgRxDVnxu4-31" style="edgeStyle=orthogonalEdgeStyle;shape=connector;rounded=1;orthogonalLoop=1;jettySize=auto;html=1;entryX=0.5;entryY=0;entryDx=0;entryDy=0;labelBackgroundColor=default;strokeColor=default;strokeWidth=1.5;align=center;verticalAlign=middle;fontFamily=Helvetica;fontSize=13;fontColor=default;endArrow=classic;" parent="WIyWlLk6GJQsqaUBKTNV-1" source="gLdE-QhClBPgRxDVnxu4-30" target="gLdE-QhClBPgRxDVnxu4-29" edge="1">
          <mxGeometry relative="1" as="geometry">
            <Array as="points">
              <mxPoint x="960" y="455" />
            </Array>
          </mxGeometry>
        </mxCell>
        <mxCell id="gLdE-QhClBPgRxDVnxu4-32" style="edgeStyle=orthogonalEdgeStyle;shape=connector;rounded=1;orthogonalLoop=1;jettySize=auto;html=1;entryX=0.5;entryY=0;entryDx=0;entryDy=0;labelBackgroundColor=default;strokeColor=default;strokeWidth=1.5;align=center;verticalAlign=middle;fontFamily=Helvetica;fontSize=13;fontColor=default;endArrow=classic;" parent="WIyWlLk6GJQsqaUBKTNV-1" source="gLdE-QhClBPgRxDVnxu4-30" target="gLdE-QhClBPgRxDVnxu4-24" edge="1">
          <mxGeometry relative="1" as="geometry">
            <Array as="points">
              <mxPoint x="1200" y="455" />
            </Array>
          </mxGeometry>
        </mxCell>
        <mxCell id="gLdE-QhClBPgRxDVnxu4-30" value="实时、离线区分" style="rounded=0;whiteSpace=wrap;html=1;labelBackgroundColor=none;align=center;verticalAlign=middle;fontFamily=Helvetica;fontSize=13;fillColor=#dae8fc;strokeColor=#6c8ebf;" parent="WIyWlLk6GJQsqaUBKTNV-1" vertex="1">
          <mxGeometry x="1020" y="440" width="120" height="30" as="geometry" />
        </mxCell>
        <mxCell id="gLdE-QhClBPgRxDVnxu4-39" value="" style="edgeStyle=orthogonalEdgeStyle;shape=connector;rounded=1;orthogonalLoop=1;jettySize=auto;html=1;labelBackgroundColor=default;strokeColor=default;strokeWidth=1.5;align=center;verticalAlign=middle;fontFamily=Helvetica;fontSize=13;fontColor=default;endArrow=classic;exitX=1;exitY=0.5;exitDx=0;exitDy=0;" parent="WIyWlLk6GJQsqaUBKTNV-1" source="2kfFUkeNst7DjbefP4rm-22" target="gLdE-QhClBPgRxDVnxu4-38" edge="1">
          <mxGeometry relative="1" as="geometry">
            <mxPoint x="1150" y="730" as="sourcePoint" />
          </mxGeometry>
        </mxCell>
        <mxCell id="gLdE-QhClBPgRxDVnxu4-38" value="名单标签绑定" style="whiteSpace=wrap;html=1;fillColor=#dae8fc;strokeColor=#6c8ebf;strokeWidth=2;rounded=1;labelBackgroundColor=none;align=center;verticalAlign=middle;fontFamily=Helvetica;fontSize=13;fontColor=default;" parent="WIyWlLk6GJQsqaUBKTNV-1" vertex="1">
          <mxGeometry x="1230" y="713" width="120" height="60" as="geometry" />
        </mxCell>
        <mxCell id="2kfFUkeNst7DjbefP4rm-6" value="" style="edgeStyle=orthogonalEdgeStyle;shape=connector;rounded=1;orthogonalLoop=1;jettySize=auto;html=1;labelBackgroundColor=default;strokeColor=default;strokeWidth=1.5;align=center;verticalAlign=middle;fontFamily=Helvetica;fontSize=13;fontColor=default;endArrow=classic;" edge="1" parent="WIyWlLk6GJQsqaUBKTNV-1" source="gLdE-QhClBPgRxDVnxu4-40" target="2kfFUkeNst7DjbefP4rm-5">
          <mxGeometry relative="1" as="geometry" />
        </mxCell>
        <mxCell id="2kfFUkeNst7DjbefP4rm-15" value="5、排除统计" style="edgeLabel;html=1;align=center;verticalAlign=middle;resizable=0;points=[];fontSize=13;fontFamily=Helvetica;fontColor=default;" vertex="1" connectable="0" parent="2kfFUkeNst7DjbefP4rm-6">
          <mxGeometry x="-0.25" relative="1" as="geometry">
            <mxPoint x="8" as="offset" />
          </mxGeometry>
        </mxCell>
        <mxCell id="2kfFUkeNst7DjbefP4rm-9" value="" style="edgeStyle=orthogonalEdgeStyle;shape=connector;rounded=1;orthogonalLoop=1;jettySize=auto;html=1;labelBackgroundColor=default;strokeColor=default;strokeWidth=1.5;align=center;verticalAlign=middle;fontFamily=Helvetica;fontSize=13;fontColor=default;endArrow=classic;" edge="1" parent="WIyWlLk6GJQsqaUBKTNV-1" source="gLdE-QhClBPgRxDVnxu4-40" target="2kfFUkeNst7DjbefP4rm-8">
          <mxGeometry relative="1" as="geometry" />
        </mxCell>
        <mxCell id="gLdE-QhClBPgRxDVnxu4-40" value="名单排除策略引擎" style="whiteSpace=wrap;html=1;fillColor=#dae8fc;strokeColor=#6c8ebf;strokeWidth=2;rounded=1;" parent="WIyWlLk6GJQsqaUBKTNV-1" vertex="1">
          <mxGeometry x="610" y="712" width="120" height="60" as="geometry" />
        </mxCell>
        <mxCell id="2kfFUkeNst7DjbefP4rm-50" style="edgeStyle=orthogonalEdgeStyle;shape=connector;rounded=1;orthogonalLoop=1;jettySize=auto;html=1;labelBackgroundColor=default;strokeColor=default;strokeWidth=1.5;align=center;verticalAlign=middle;fontFamily=Helvetica;fontSize=13;fontColor=default;endArrow=classic;" edge="1" parent="WIyWlLk6GJQsqaUBKTNV-1" source="2kfFUkeNst7DjbefP4rm-5">
          <mxGeometry relative="1" as="geometry">
            <mxPoint x="1010" y="860" as="targetPoint" />
          </mxGeometry>
        </mxCell>
        <mxCell id="2kfFUkeNst7DjbefP4rm-5" value="排除统计、监控" style="whiteSpace=wrap;html=1;fillColor=#dae8fc;strokeColor=#6c8ebf;strokeWidth=2;rounded=1;" vertex="1" parent="WIyWlLk6GJQsqaUBKTNV-1">
          <mxGeometry x="850" y="713" width="120" height="60" as="geometry" />
        </mxCell>
        <mxCell id="2kfFUkeNst7DjbefP4rm-11" value="" style="edgeStyle=orthogonalEdgeStyle;shape=connector;rounded=1;orthogonalLoop=1;jettySize=auto;html=1;labelBackgroundColor=default;strokeColor=default;strokeWidth=1.5;align=center;verticalAlign=middle;fontFamily=Helvetica;fontSize=13;fontColor=default;endArrow=classic;" edge="1" parent="WIyWlLk6GJQsqaUBKTNV-1" source="2kfFUkeNst7DjbefP4rm-8" target="2kfFUkeNst7DjbefP4rm-10">
          <mxGeometry relative="1" as="geometry" />
        </mxCell>
        <mxCell id="2kfFUkeNst7DjbefP4rm-16" value="6、入库统计" style="edgeLabel;html=1;align=center;verticalAlign=middle;resizable=0;points=[];fontSize=13;fontFamily=Helvetica;fontColor=default;" vertex="1" connectable="0" parent="2kfFUkeNst7DjbefP4rm-11">
          <mxGeometry x="-0.1167" relative="1" as="geometry">
            <mxPoint as="offset" />
          </mxGeometry>
        </mxCell>
        <mxCell id="2kfFUkeNst7DjbefP4rm-24" value="" style="edgeStyle=orthogonalEdgeStyle;shape=connector;rounded=1;orthogonalLoop=1;jettySize=auto;html=1;labelBackgroundColor=default;strokeColor=default;strokeWidth=1.5;align=center;verticalAlign=middle;fontFamily=Helvetica;fontSize=13;fontColor=default;endArrow=classic;" edge="1" parent="WIyWlLk6GJQsqaUBKTNV-1" source="2kfFUkeNst7DjbefP4rm-8" target="2kfFUkeNst7DjbefP4rm-23">
          <mxGeometry relative="1" as="geometry" />
        </mxCell>
        <mxCell id="2kfFUkeNst7DjbefP4rm-28" value="8.1、点呼分案" style="edgeLabel;html=1;align=center;verticalAlign=middle;resizable=0;points=[];fontSize=13;fontFamily=Helvetica;fontColor=default;" vertex="1" connectable="0" parent="2kfFUkeNst7DjbefP4rm-24">
          <mxGeometry x="0.7727" y="-1" relative="1" as="geometry">
            <mxPoint as="offset" />
          </mxGeometry>
        </mxCell>
        <mxCell id="2kfFUkeNst7DjbefP4rm-26" style="edgeStyle=orthogonalEdgeStyle;shape=connector;rounded=1;orthogonalLoop=1;jettySize=auto;html=1;labelBackgroundColor=default;strokeColor=default;strokeWidth=1.5;align=center;verticalAlign=middle;fontFamily=Helvetica;fontSize=13;fontColor=default;endArrow=classic;" edge="1" parent="WIyWlLk6GJQsqaUBKTNV-1" source="2kfFUkeNst7DjbefP4rm-8" target="2kfFUkeNst7DjbefP4rm-25">
          <mxGeometry relative="1" as="geometry" />
        </mxCell>
        <mxCell id="2kfFUkeNst7DjbefP4rm-27" value="8、名单分案" style="edgeLabel;html=1;align=center;verticalAlign=middle;resizable=0;points=[];fontSize=13;fontFamily=Helvetica;fontColor=default;" vertex="1" connectable="0" parent="2kfFUkeNst7DjbefP4rm-26">
          <mxGeometry x="-0.8727" y="1" relative="1" as="geometry">
            <mxPoint y="8" as="offset" />
          </mxGeometry>
        </mxCell>
        <mxCell id="2kfFUkeNst7DjbefP4rm-29" value="8.2、预测外呼分案" style="edgeLabel;html=1;align=center;verticalAlign=middle;resizable=0;points=[];fontSize=13;fontFamily=Helvetica;fontColor=default;" vertex="1" connectable="0" parent="2kfFUkeNst7DjbefP4rm-26">
          <mxGeometry x="0.6818" y="-2" relative="1" as="geometry">
            <mxPoint y="10" as="offset" />
          </mxGeometry>
        </mxCell>
        <mxCell id="2kfFUkeNst7DjbefP4rm-8" value="名单入库" style="whiteSpace=wrap;html=1;fillColor=#dae8fc;strokeColor=#6c8ebf;strokeWidth=2;rounded=1;" vertex="1" parent="WIyWlLk6GJQsqaUBKTNV-1">
          <mxGeometry x="610" y="830" width="120" height="60" as="geometry" />
        </mxCell>
        <mxCell id="2kfFUkeNst7DjbefP4rm-10" value="入库统计、监控" style="whiteSpace=wrap;html=1;fillColor=#dae8fc;strokeColor=#6c8ebf;strokeWidth=2;rounded=1;" vertex="1" parent="WIyWlLk6GJQsqaUBKTNV-1">
          <mxGeometry x="850" y="830" width="120" height="60" as="geometry" />
        </mxCell>
        <mxCell id="2kfFUkeNst7DjbefP4rm-20" value="" style="edgeStyle=orthogonalEdgeStyle;shape=connector;rounded=1;orthogonalLoop=1;jettySize=auto;html=1;labelBackgroundColor=default;strokeColor=default;strokeWidth=1.5;align=center;verticalAlign=middle;fontFamily=Helvetica;fontSize=13;fontColor=default;endArrow=classic;" edge="1" parent="WIyWlLk6GJQsqaUBKTNV-1" source="2kfFUkeNst7DjbefP4rm-12" target="2kfFUkeNst7DjbefP4rm-19">
          <mxGeometry relative="1" as="geometry" />
        </mxCell>
        <mxCell id="2kfFUkeNst7DjbefP4rm-21" value="8、麻雀消费回执数据" style="edgeLabel;html=1;align=center;verticalAlign=middle;resizable=0;points=[];fontSize=13;fontFamily=Helvetica;fontColor=default;" vertex="1" connectable="0" parent="2kfFUkeNst7DjbefP4rm-20">
          <mxGeometry x="0.1107" y="1" relative="1" as="geometry">
            <mxPoint as="offset" />
          </mxGeometry>
        </mxCell>
        <mxCell id="2kfFUkeNst7DjbefP4rm-12" value="rocketmq" style="strokeWidth=2;html=1;shape=mxgraph.flowchart.direct_data;whiteSpace=wrap;rounded=1;strokeColor=#82b366;align=center;verticalAlign=middle;fontFamily=Helvetica;fontSize=12;fillColor=#d5e8d4;" vertex="1" parent="WIyWlLk6GJQsqaUBKTNV-1">
          <mxGeometry x="1380" y="830" width="100" height="60" as="geometry" />
        </mxCell>
        <mxCell id="2kfFUkeNst7DjbefP4rm-13" style="edgeStyle=orthogonalEdgeStyle;shape=connector;rounded=1;orthogonalLoop=1;jettySize=auto;html=1;entryX=0;entryY=0.5;entryDx=0;entryDy=0;entryPerimeter=0;labelBackgroundColor=default;strokeColor=default;strokeWidth=1.5;align=center;verticalAlign=middle;fontFamily=Helvetica;fontSize=13;fontColor=default;endArrow=classic;" edge="1" parent="WIyWlLk6GJQsqaUBKTNV-1" source="2kfFUkeNst7DjbefP4rm-10" target="2kfFUkeNst7DjbefP4rm-12">
          <mxGeometry relative="1" as="geometry" />
        </mxCell>
        <mxCell id="2kfFUkeNst7DjbefP4rm-14" value="7、入库结果回执" style="edgeLabel;html=1;align=center;verticalAlign=middle;resizable=0;points=[];fontSize=13;fontFamily=Helvetica;fontColor=default;" vertex="1" connectable="0" parent="2kfFUkeNst7DjbefP4rm-13">
          <mxGeometry x="-0.0766" y="3" relative="1" as="geometry">
            <mxPoint as="offset" />
          </mxGeometry>
        </mxCell>
        <mxCell id="2kfFUkeNst7DjbefP4rm-19" value="回执结果统计" style="whiteSpace=wrap;html=1;fillColor=#d5e8d4;strokeColor=#82b366;strokeWidth=2;rounded=1;" vertex="1" parent="WIyWlLk6GJQsqaUBKTNV-1">
          <mxGeometry x="1370" y="190" width="120" height="60" as="geometry" />
        </mxCell>
        <mxCell id="2kfFUkeNst7DjbefP4rm-22" value="名单撞库" style="whiteSpace=wrap;html=1;fillColor=#dae8fc;strokeColor=#6c8ebf;strokeWidth=2;rounded=1;labelBackgroundColor=none;align=center;verticalAlign=middle;fontFamily=Helvetica;fontSize=13;fontColor=default;" vertex="1" parent="WIyWlLk6GJQsqaUBKTNV-1">
          <mxGeometry x="1030" y="713" width="120" height="60" as="geometry" />
        </mxCell>
        <mxCell id="2kfFUkeNst7DjbefP4rm-33" value="" style="edgeStyle=orthogonalEdgeStyle;shape=connector;rounded=1;orthogonalLoop=1;jettySize=auto;html=1;labelBackgroundColor=default;strokeColor=default;strokeWidth=1.5;align=center;verticalAlign=middle;fontFamily=Helvetica;fontSize=13;fontColor=default;endArrow=classic;" edge="1" parent="WIyWlLk6GJQsqaUBKTNV-1" source="2kfFUkeNst7DjbefP4rm-23" target="2kfFUkeNst7DjbefP4rm-32">
          <mxGeometry relative="1" as="geometry" />
        </mxCell>
        <mxCell id="2kfFUkeNst7DjbefP4rm-35" value="" style="edgeStyle=orthogonalEdgeStyle;shape=connector;rounded=1;orthogonalLoop=1;jettySize=auto;html=1;labelBackgroundColor=default;strokeColor=default;strokeWidth=1.5;align=center;verticalAlign=middle;fontFamily=Helvetica;fontSize=13;fontColor=default;endArrow=classic;" edge="1" parent="WIyWlLk6GJQsqaUBKTNV-1" source="2kfFUkeNst7DjbefP4rm-23" target="2kfFUkeNst7DjbefP4rm-34">
          <mxGeometry relative="1" as="geometry" />
        </mxCell>
        <mxCell id="2kfFUkeNst7DjbefP4rm-23" value="点呼分案引擎" style="whiteSpace=wrap;html=1;fillColor=#e51400;strokeColor=#B20000;strokeWidth=2;rounded=1;fontColor=#ffffff;" vertex="1" parent="WIyWlLk6GJQsqaUBKTNV-1">
          <mxGeometry x="490" y="997" width="120" height="60" as="geometry" />
        </mxCell>
        <mxCell id="2kfFUkeNst7DjbefP4rm-31" value="" style="edgeStyle=orthogonalEdgeStyle;shape=connector;rounded=1;orthogonalLoop=1;jettySize=auto;html=1;labelBackgroundColor=default;strokeColor=default;strokeWidth=1.5;align=center;verticalAlign=middle;fontFamily=Helvetica;fontSize=13;fontColor=default;endArrow=classic;" edge="1" parent="WIyWlLk6GJQsqaUBKTNV-1" source="2kfFUkeNst7DjbefP4rm-25" target="2kfFUkeNst7DjbefP4rm-30">
          <mxGeometry relative="1" as="geometry" />
        </mxCell>
        <mxCell id="2kfFUkeNst7DjbefP4rm-25" value="预测外呼分案引擎" style="whiteSpace=wrap;html=1;fillColor=#e51400;strokeColor=#B20000;strokeWidth=2;rounded=1;labelBackgroundColor=none;align=center;verticalAlign=middle;fontFamily=Helvetica;fontSize=13;fontColor=#ffffff;" vertex="1" parent="WIyWlLk6GJQsqaUBKTNV-1">
          <mxGeometry x="730" y="995" width="120" height="60" as="geometry" />
        </mxCell>
        <mxCell id="2kfFUkeNst7DjbefP4rm-40" value="" style="edgeStyle=orthogonalEdgeStyle;shape=connector;rounded=1;orthogonalLoop=1;jettySize=auto;html=1;labelBackgroundColor=default;strokeColor=default;strokeWidth=1.5;align=center;verticalAlign=middle;fontFamily=Helvetica;fontSize=13;fontColor=default;endArrow=classic;" edge="1" parent="WIyWlLk6GJQsqaUBKTNV-1" source="2kfFUkeNst7DjbefP4rm-30" target="2kfFUkeNst7DjbefP4rm-39">
          <mxGeometry relative="1" as="geometry" />
        </mxCell>
        <mxCell id="2kfFUkeNst7DjbefP4rm-41" value="9、预测外呼" style="edgeLabel;html=1;align=center;verticalAlign=middle;resizable=0;points=[];fontSize=13;fontFamily=Helvetica;fontColor=default;" vertex="1" connectable="0" parent="2kfFUkeNst7DjbefP4rm-40">
          <mxGeometry x="-0.175" y="3" relative="1" as="geometry">
            <mxPoint y="3" as="offset" />
          </mxGeometry>
        </mxCell>
        <mxCell id="2kfFUkeNst7DjbefP4rm-46" style="edgeStyle=orthogonalEdgeStyle;shape=connector;rounded=1;orthogonalLoop=1;jettySize=auto;html=1;entryX=1;entryY=0.75;entryDx=0;entryDy=0;labelBackgroundColor=default;strokeColor=default;strokeWidth=1.5;align=center;verticalAlign=middle;fontFamily=Helvetica;fontSize=13;fontColor=default;endArrow=classic;" edge="1" parent="WIyWlLk6GJQsqaUBKTNV-1">
          <mxGeometry relative="1" as="geometry">
            <mxPoint x="810" y="1180" as="sourcePoint" />
            <mxPoint x="710" y="1180" as="targetPoint" />
            <Array as="points">
              <mxPoint x="790" y="1180" />
              <mxPoint x="790" y="1180" />
            </Array>
          </mxGeometry>
        </mxCell>
        <mxCell id="2kfFUkeNst7DjbefP4rm-30" value="预测外呼池" style="whiteSpace=wrap;html=1;fillColor=#dae8fc;strokeColor=#6c8ebf;strokeWidth=2;rounded=1;labelBackgroundColor=none;align=center;verticalAlign=middle;fontFamily=Helvetica;fontSize=13;" vertex="1" parent="WIyWlLk6GJQsqaUBKTNV-1">
          <mxGeometry x="810" y="1140" width="120" height="60" as="geometry" />
        </mxCell>
        <mxCell id="2kfFUkeNst7DjbefP4rm-48" style="edgeStyle=orthogonalEdgeStyle;shape=connector;rounded=1;orthogonalLoop=1;jettySize=auto;html=1;entryX=0;entryY=0.5;entryDx=0;entryDy=0;labelBackgroundColor=default;strokeColor=default;strokeWidth=1.5;align=center;verticalAlign=middle;fontFamily=Helvetica;fontSize=13;fontColor=default;endArrow=classic;" edge="1" parent="WIyWlLk6GJQsqaUBKTNV-1">
          <mxGeometry relative="1" as="geometry">
            <mxPoint x="510" y="1178" as="sourcePoint" />
            <mxPoint x="590" y="1178" as="targetPoint" />
          </mxGeometry>
        </mxCell>
        <mxCell id="2kfFUkeNst7DjbefP4rm-32" value="案件跟进池" style="whiteSpace=wrap;html=1;fillColor=#dae8fc;strokeColor=#6c8ebf;strokeWidth=2;rounded=1;" vertex="1" parent="WIyWlLk6GJQsqaUBKTNV-1">
          <mxGeometry x="390" y="1140" width="120" height="60" as="geometry" />
        </mxCell>
        <mxCell id="2kfFUkeNst7DjbefP4rm-37" value="" style="edgeStyle=orthogonalEdgeStyle;shape=connector;rounded=1;orthogonalLoop=1;jettySize=auto;html=1;labelBackgroundColor=default;strokeColor=default;strokeWidth=1.5;align=center;verticalAlign=middle;fontFamily=Helvetica;fontSize=13;fontColor=default;endArrow=classic;exitX=0.5;exitY=1;exitDx=0;exitDy=0;" edge="1" parent="WIyWlLk6GJQsqaUBKTNV-1" source="2kfFUkeNst7DjbefP4rm-32" target="2kfFUkeNst7DjbefP4rm-36">
          <mxGeometry relative="1" as="geometry">
            <Array as="points">
              <mxPoint x="450" y="1220" />
              <mxPoint x="450" y="1220" />
            </Array>
          </mxGeometry>
        </mxCell>
        <mxCell id="2kfFUkeNst7DjbefP4rm-38" value="9、人工点呼" style="edgeLabel;html=1;align=center;verticalAlign=middle;resizable=0;points=[];fontSize=13;fontFamily=Helvetica;fontColor=default;" vertex="1" connectable="0" parent="2kfFUkeNst7DjbefP4rm-37">
          <mxGeometry x="-0.2" y="-1" relative="1" as="geometry">
            <mxPoint x="1" y="2" as="offset" />
          </mxGeometry>
        </mxCell>
        <mxCell id="2kfFUkeNst7DjbefP4rm-44" style="edgeStyle=orthogonalEdgeStyle;shape=connector;rounded=1;orthogonalLoop=1;jettySize=auto;html=1;entryX=1;entryY=0.5;entryDx=0;entryDy=0;labelBackgroundColor=default;strokeColor=default;strokeWidth=1.5;align=center;verticalAlign=middle;fontFamily=Helvetica;fontSize=13;fontColor=default;endArrow=classic;" edge="1" parent="WIyWlLk6GJQsqaUBKTNV-1">
          <mxGeometry relative="1" as="geometry">
            <mxPoint x="590" y="1164" as="sourcePoint" />
            <mxPoint x="510" y="1164" as="targetPoint" />
          </mxGeometry>
        </mxCell>
        <mxCell id="2kfFUkeNst7DjbefP4rm-45" style="edgeStyle=orthogonalEdgeStyle;shape=connector;rounded=1;orthogonalLoop=1;jettySize=auto;html=1;entryX=0;entryY=0.5;entryDx=0;entryDy=0;labelBackgroundColor=default;strokeColor=default;strokeWidth=1.5;align=center;verticalAlign=middle;fontFamily=Helvetica;fontSize=13;fontColor=default;endArrow=classic;" edge="1" parent="WIyWlLk6GJQsqaUBKTNV-1">
          <mxGeometry relative="1" as="geometry">
            <mxPoint x="710" y="1164" as="sourcePoint" />
            <mxPoint x="810" y="1164" as="targetPoint" />
          </mxGeometry>
        </mxCell>
        <mxCell id="2kfFUkeNst7DjbefP4rm-34" value="待分配池" style="whiteSpace=wrap;html=1;fillColor=#dae8fc;strokeColor=#6c8ebf;strokeWidth=2;rounded=1;" vertex="1" parent="WIyWlLk6GJQsqaUBKTNV-1">
          <mxGeometry x="590" y="1140" width="120" height="60" as="geometry" />
        </mxCell>
        <mxCell id="2kfFUkeNst7DjbefP4rm-36" value="点呼对接" style="whiteSpace=wrap;html=1;fillColor=#dae8fc;strokeColor=#6c8ebf;strokeWidth=2;rounded=1;" vertex="1" parent="WIyWlLk6GJQsqaUBKTNV-1">
          <mxGeometry x="390" y="1280" width="120" height="60" as="geometry" />
        </mxCell>
        <mxCell id="2kfFUkeNst7DjbefP4rm-39" value="预测外呼对接" style="whiteSpace=wrap;html=1;fillColor=#dae8fc;strokeColor=#6c8ebf;strokeWidth=2;rounded=1;labelBackgroundColor=none;align=center;verticalAlign=middle;fontFamily=Helvetica;fontSize=13;" vertex="1" parent="WIyWlLk6GJQsqaUBKTNV-1">
          <mxGeometry x="810" y="1280" width="120" height="60" as="geometry" />
        </mxCell>
      </root>
    </mxGraphModel>
  </diagram>
</mxfile>
